<?xml version="1.0" encoding="utf-8"?>
<!-- Generator: Adobe Illustrator 25.0.0, SVG Export Plug-In . SVG Version: 6.00 Build 0)  -->
<svg version="1.1" id="Layer_1" xmlns="http://www.w3.org/2000/svg" xmlns:xlink="http://www.w3.org/1999/xlink" x="0px" y="0px"
	 viewBox="0 0 141.73 141.73" style="enable-background:new 0 0 141.73 141.73;" xml:space="preserve">
<style type="text/css">
	.st0{fill:#790084;}
	.st1{fill:#9A0099;}
	.st2{fill:#B500A4;}
	.st3{fill:#6A0084;}
	.st4{fill:#9200A5;}
	.st5{clip-path:url(#SVGID_2_);}
	.st6{fill:#9700A0;}
	.st7{fill:#530061;}
	.st8{fill:#92007C;}
	.st9{fill:#500064;}
	.st10{fill:#680082;}
	.st11{fill:#2A003E;}
	.st12{fill:#6F0061;}
	.st13{fill:#FFFFFF;}
</style>
<g>
	<path class="st0" d="M133.89,122.12c-0.72-1.67-0.26-3.42-0.35-5.13c-0.07-1.2-0.01-2.41-0.01-3.77c-0.91,0.24-1.06,0.9-1.35,1.4
		c-1.3,2.19-2.55,4.4-3.9,6.55c-1.06,1.71-2.21,1.68-3.25-0.05c-1.34-2.22-2.64-4.46-3.95-6.69c-0.28-0.48-0.47-1.27-1.13-1.1
		c-0.59,0.15-0.31,0.9-0.32,1.39c-0.03,1.79-0.01,3.58-0.02,5.37c0,0.75,0.03,1.52-0.68,2.04c-0.05-0.03-0.1-0.07-0.15-0.08
		c-2.8-0.34-2.8-0.34-2.8-3.25c0-4.2,0.01-8.41-0.01-12.61c0-0.57,0.13-1.15-0.15-1.7c1.5-1.19,2.81-1.05,3.72,0.48
		c2.03,3.42,4.05,6.85,6.01,10.32c0.74,1.31,1.35,1.25,2.06,0.06c2.04-3.41,4.11-6.79,6.07-10.24c0.61-1.07,1.34-1.56,2.51-1.28
		c1.18,0.28,1.47,1.22,1.48,2.26c0.02,4.79,0.01,9.58,0.01,14.37c0,0.65-0.09,1.27-0.68,1.69c-0.05-0.03-0.09-0.09-0.14-0.1
		c-2.82-0.31-2.82-0.31-2.82-3.18c0-1.44,0-2.87,0-3.88C133.91,117.08,134.23,119.61,133.89,122.12z"/>
	<path class="st0" d="M22.3,113.15c-1.51,2.59-2.96,5.22-4.53,7.77c-1.25,2.04-2.52,1.93-3.65-0.1c-1.45-2.59-3-5.12-4.56-7.77
		c-0.7,0.74-0.4,1.52-0.46,2.22c-0.19,2.28,0.39,4.6-0.37,6.85c-0.34-2.52-0.03-5.05-0.15-7.1c0,1.53-0.07,3.54,0.03,5.54
		c0.06,1.18-0.35,1.54-1.47,1.43c-0.49-0.05-1.04-0.18-1.51,0.15c-0.65-0.47-0.68-1.16-0.68-1.87c0-4.67,0-9.35,0-14.02
		c0-1.32,0.29-2.4,1.91-2.58c0.78-0.09,1.3,0.01,1.72,0.75c2.12,3.68,4.38,7.29,6.39,11.04c0.76,1.41,1.26,1.07,1.85,0.13
		c1.23-1.94,2.39-3.94,3.54-5.94c1.01-1.74,2.02-3.49,2.92-5.29c0.51-1.03,1.4-0.58,2.13-0.73c0.88-0.18,1.22,0.44,1.4,1.18
		c-0.35,2.29-0.11,4.59-0.15,6.88c-0.05,3.28,0.01,6.56-0.02,9.84c-0.93,0.84-2.05,0.4-3.07,0.34c-0.58-0.03-0.38-0.74-0.39-1.17
		c-0.02-2.36-0.01-4.73-0.01-7.09C23.17,112.94,23.11,112.35,22.3,113.15z"/>
	<path class="st0" d="M93.56,111.42c0.89-2.19,1.72-4.35,3.69-5.94c1.62-1.31,3.41-1.93,5.39-2.03c2.2-0.11,4.4-0.06,6.6-0.02
		c2.08,0.04,3.06,1.03,3.07,3.13c0.02,4.57-0.03,9.13,0.03,13.7c0.02,1.43-0.55,1.93-1.96,1.93c-1.45,0.01-2.05-0.6-1.88-1.98
		c0.21-1.78-0.6-2.34-2.31-2.26c-2.31,0.11-4.63,0.07-6.95,0.02c-1.31-0.03-1.94,0.44-1.89,1.81c0.03,0.84,0.14,1.89-0.91,2.21
		c-0.98,0.3-2.07,0.44-2.87-0.55C93.82,118.1,93.81,114.76,93.56,111.42z"/>
	<path class="st0" d="M71.68,103.84c2.81-1.1,3.76-0.49,3.79,2.38c0.05,5.11-0.64,4.45,4.53,4.49c2.19,0.02,4.39-0.01,6.58-0.02
		c0.14,0.18,0.12,0.34-0.05,0.48c-2.96,0.14-5.92,0-8.34,0.06c1.98,0,4.51,0.02,7.03-0.02c0.51-0.01,1.17,0.34,1.53-0.39
		c-0.06-2.23,0.2-4.46-0.14-6.69c0.86-1.03,2.01-0.86,3.03-0.52c1.05,0.35,0.77,1.44,0.77,2.26c0.02,4.38,0.01,8.76,0.01,13.15
		c0,3.14,0,3.14-3.12,3.13c-0.72-0.39-0.49-1.08-0.53-1.68c-0.13-1.86,0.26-3.75-0.2-5.6c-3.01,0-6.02,0.05-9.03-0.04
		c-1.62-0.05-2.19,0.59-2.08,2.15c0.08,1.15,0.01,2.31,0.01,3.47c0,0.65-0.09,1.28-0.68,1.7c-0.05-0.03-0.1-0.07-0.15-0.08
		c-2.8-0.34-2.8-0.34-2.8-3.25c0-4.43,0.01-8.86-0.01-13.29C71.81,104.97,71.94,104.39,71.68,103.84z"/>
	<path class="st0" d="M38.31,122.14c-4.49-0.41-7.84-3.89-8.35-8.68c0.26-3.11,0.26-6.22,0-9.32c0.86-1.03,2.01-0.87,3.04-0.52
		c1.05,0.36,0.75,1.44,0.76,2.27c0.03,2.43-0.02,4.85,0.02,7.28c0.05,3.41,1.78,5.12,5.15,5.17c1.04,0.01,2.08,0.01,3.13,0.01
		c2.83,0,2.83,0,2.83-2.74c0-3.24-0.01-6.47,0.01-9.71c0.01-0.83-0.28-1.92,0.76-2.28c1.02-0.35,2.17-0.51,3.04,0.52
		c-0.36,2.27-0.15,4.56-0.14,6.84c0.02,3.25-0.22,6.51,0.14,9.76c-0.23,0.56-0.48,1.1-1.06,1.4
		C44.53,121.88,41.42,121.87,38.31,122.14z"/>
	<path class="st0" d="M52.2,111.42c0-0.13,0-0.26,0-0.38c0.27-2.18,0.27-4.37,0-6.55c0.51-1.49,1.74-1.08,2.76-0.96
		c1.07,0.13,1.04,1.08,1.04,1.89c0.01,4.31,0.01,8.61,0.01,12.92c0.12,0.29,0.34,0.5,0.64,0.5c4.07-0.04,8.14,0.24,12.21-0.14
		c1.17,1.06,0.8,2.24,0.29,3.44c-5.17-0.24-10.35-0.24-15.52,0c-1.89-0.9-1.39-2.62-1.43-4.15C52.47,115.78,52.47,113.6,52.2,111.42
		z"/>
	<path class="st1" d="M71.68,103.84c0.42,0.68,0.31,1.45,0.31,2.19c0.01,4.02,0,8.05,0,12.07c0,3.18,0,3.18,2.78,4.05
		c-0.46,0-0.93-0.02-1.39,0.01c-1.23,0.1-1.79-0.38-1.78-1.68C71.67,114.93,71.66,109.38,71.68,103.84z"/>
	<path class="st0" d="M115.81,104.51c0.44,0.68,0.32,1.45,0.32,2.18c0.01,3.8,0,7.6,0,11.4c0,3.19,0,3.19,2.78,4.06
		c-0.46,0-0.92-0.03-1.38,0.01c-1.36,0.12-1.8-0.51-1.79-1.82C115.8,115.06,115.79,109.78,115.81,104.51z"/>
	<path class="st2" d="M26.47,121.82c0-4.94,0-9.87,0.01-14.81c0-0.74-0.08-1.5,0.33-2.18c0,5.1,0.01,10.19,0.01,15.29
		c0,0.68,0.07,1.38-0.36,1.99C26.22,122,26.23,121.91,26.47,121.82z"/>
	<path class="st2" d="M48.7,120.74c-0.11-0.44-0.31-0.88-0.31-1.32c-0.02-4.65-0.02-9.31,0-13.96c0-0.44,0.2-0.88,0.31-1.32
		C48.7,109.67,48.7,115.2,48.7,120.74z"/>
	<path class="st1" d="M53.63,122.12c0.58-0.35,1.22-0.32,1.86-0.32c3.94,0,7.87,0,11.81,0c0.63,0,1.28-0.04,1.85,0.32
		C63.98,122.12,58.81,122.12,53.63,122.12z"/>
	<path class="st0" d="M26.47,121.82c0,0.1-0.01,0.19-0.01,0.29c-0.06,0.01-0.11,0.01-0.17,0.02c-3.3,0.17-3.3,0.17-3.3-3.05
		c0-1.55,0.03-3.1-0.02-4.65c-0.01-0.49,0.31-1.25-0.66-1.28c0.13-0.41,0.08-1.07,0.69-0.98c0.47,0.07,0.33,0.67,0.34,1.04
		c0.02,1.78,0.01,3.55,0.01,5.33C23.34,121.75,23.34,121.75,26.47,121.82z"/>
	<path class="st0" d="M5.62,122.15c2.78-0.87,2.78-0.87,2.78-3.9c0-2.22,0-4.44,0.32-6.65c0,3.51,0,7.02,0,10.53
		C7.68,122.13,6.65,122.14,5.62,122.15z"/>
	<path class="st1" d="M133.89,122.12c0-3.5,0-7,0-10.54c0.49,0.24,0.31,0.74,0.31,1.12c0.02,2.19,0.08,4.39-0.01,6.58
		c-0.07,1.61,0.21,2.75,2.17,2.62c0.21-0.01,0.42,0.16,0.64,0.25C135.95,122.14,134.92,122.13,133.89,122.12z"/>
	<path class="st1" d="M68.87,118.68c-1.08,0.58-2.24,0.32-3.37,0.33c-2.69,0.04-5.38,0.03-8.07-0.01c-0.51-0.01-1.35,0.38-1.41-0.68
		c1.67,0.62,3.41,0.28,5.11,0.32C63.7,118.71,66.29,118.68,68.87,118.68z"/>
	<path class="st3" d="M93.56,111.42c0.54,3.34,0.54,6.68,0,10.01C93.56,118.1,93.56,114.76,93.56,111.42z"/>
	<path class="st0" d="M29.96,104.13c0.54,3.11,0.54,6.22,0,9.32C29.96,110.35,29.96,107.24,29.96,104.13z"/>
	<path class="st2" d="M38.31,122.14c3.11-0.55,6.22-0.54,9.33,0C44.53,122.14,41.42,122.14,38.31,122.14z"/>
	<path class="st4" d="M86.56,114.88c0.75,0.83,0.27,1.83,0.36,2.75c0.15,1.51-0.24,3.06,0.37,4.53c-0.78-0.38-0.69-1.11-0.7-1.79
		C86.58,118.54,86.57,116.71,86.56,114.88z"/>
	<path class="st0" d="M86.59,111.03c0-0.11,0-0.23,0-0.34c0.01-2.19,0.02-4.37,0.02-6.56c0.69,2.29,0.19,4.63,0.32,6.94
		C86.79,111.21,86.68,111.19,86.59,111.03z"/>
	<path class="st0" d="M52.2,104.48c0.53,2.18,0.53,4.37,0,6.55C52.2,108.85,52.2,106.66,52.2,104.48z"/>
	<path class="st0" d="M52.2,111.42c0.53,2.18,0.53,4.37,0,6.55C52.2,115.78,52.2,113.6,52.2,111.42z"/>
	<g>
		<g>
			<g>
				<defs>
					<path id="SVGID_1_" d="M39.95,41.77c-0.05-1.45,0.43-2.94-0.32-4.34c-1.24-2.22-1.7-4.51-0.3-6.81
						c0.42-0.69,0.47-1.34,0.47-2.06c0-2.1,0.01-4.21,0-6.31c-0.02-5.11-0.28-4.66,4.79-4.66c19.3,0,38.59,0,57.89,0
						c0.73,0,1.46,0.04,2.19,0c1.45-0.08,2.03,0.56,2.04,2.01c0.01,3.48-0.14,6.96,0.08,10.43c0.07,1.06-0.53,1.45-1.38,1.65
						c-1.03,0.24-2.09,0.21-3.15,0.21c-7.22,0.02-14.43,0-21.65,0.01c-0.97,0-1.95-0.05-2.91,0.14c-1,0.2-1.99,0.55-2.02,1.74
						c-0.04,1.34,1.04,1.69,2.13,1.89c0.96,0.18,1.94,0.12,2.91,0.13c7.22,0.01,14.43-0.03,21.65,0.03
						c1.34,0.01,2.79-0.25,3.92,0.83c0.04,0.07,0.1,0.14,0.1,0.22c0.05,7.31,1.08,6.09-5.72,6.19c-4.7,0.07-9.41,0.12-14.1-0.02
						c-3.04-0.09-5.96,0.58-8.93,0.92c-1.03,0.12-1.97,0.51-2.01,1.72c-0.05,1.36,0.98,1.7,2.09,1.9c3.68,0.64,7.37,0.95,11.12,0.88
						c5.11-0.11,10.21,0.01,15.32-0.05c1.85-0.02,2.65,0.6,2.58,2.54c-0.05,1.5-0.37,3.07,0.3,4.54c2.26,1.76,2.48,4.61,0.53,6.8
						c-1.09,1.22-1.35,3.93-0.24,5.04c1.9,1.89,1.76,3.96,0.97,6.19c-0.28,0.55-0.92,0.73-1.26,1.22c-0.17,0.26-0.27,0.54-0.3,0.85
						c-0.08,2.83-0.08,5.67-0.01,8.5c0.04,1.71-0.47,2.48-2.33,2.48c-20.67-0.04-41.34-0.04-62.01,0c-1.85,0-2.38-0.75-2.34-2.47
						c0.07-2.99,0.06-5.99-0.01-8.98c-0.04-0.3-0.1-0.61-0.19-0.9c0.01-0.31,0.13-0.58,0.33-0.81c1.21-0.91,2.63-0.66,3.98-0.67
						c7.7-0.04,15.4-0.01,23.09-0.03c1.05,0,2.12,0.07,3.13-0.3c0.82-0.3,1.43-0.81,1.37-1.77c-0.06-0.84-0.64-1.27-1.37-1.53
						c-1.01-0.36-2.08-0.29-3.13-0.3c-8.1-0.01-16.21,0.02-24.31-0.03c-1.02-0.01-2.13,0.29-3-0.57c-0.11-1.75,0.17-3.51,0.02-5.25
						c-0.1-1.21,0.61-1.56,1.56-1.73c1.04-0.19,2.1-0.16,3.15-0.16c7.7-0.02,15.4,0.03,23.09-0.03c1.55-0.01,3.48,0.34,3.97-1.83
						c0.3-1.31-1.15-2.03-4-2.04c-7.86-0.03-15.72,0.02-23.58-0.04c-1.33-0.01-2.79,0.28-3.89-0.89c-0.39-0.92-0.16-1.89-0.21-2.84
						c-0.09-1.72-0.17-3.32-0.87-5.05C38.37,46.3,38.23,43.78,39.95,41.77z"/>
				</defs>
				<clipPath id="SVGID_2_">
					<use xlink:href="#SVGID_1_"  style="overflow:visible;"/>
				</clipPath>
				<g class="st5">
				</g>
			</g>
		</g>
		<path class="st6" d="M106.58,37.01c-9.89,0-19.77-0.08-29.66,0.06c-2.6,0.04-2.86-1.14-2.86-3.22c-0.01-2.1,0.29-3.25,2.87-3.21
			c9.07,0.15,18.15,0.01,27.23,0.09c1.94,0.02,2.79-0.4,2.63-2.53c-0.19-2.49-0.17-5.02-0.01-7.52c0.15-2.43-1.1-2.79-3.12-2.78
			c-14.67,0.04-29.34,0.02-44,0.02c-5.35,0-10.7,0.07-16.05-0.03c-2.14-0.04-3.28,0.61-3.03,2.88c0.63,5.57-1.19,11.07-0.54,16.64
			c-0.18,0.01-0.37,0.02-0.55,0.02c-0.57-0.58-1.12-1.14-2.06-0.79c-2.86,1.06-5.78,0.59-8.69,0.35c-1.04-0.03-1.42-0.66-1.4-1.6
			c0.03-1.12,0.05-2.25,0.15-3.37c0.12-1.35,1.19-1.37,2.17-1.38c2.51-0.03,5.03-0.05,7.54-0.02c1.93,0.02,2.81-0.82,2.74-2.79
			c-0.08-2.59,0.09-5.18-0.05-7.76c-0.13-2.32,0.75-3.11,3.08-3.09c11.19,0.09,22.37,0.04,33.56,0.04c9.32,0,18.65-0.01,27.97,0.01
			c3,0,3.14,0.17,3.16,3.18c0.02,2.51,0.1,5.02-0.02,7.52c-0.11,2.25,0.86,3.04,3.03,2.93c2.26-0.11,4.54,0.01,6.81-0.03
			c1.44-0.02,2.49,0.42,2.27,2.04c-0.22,1.63,1.13,4.01-1.82,4.51c-2.89,0.49-5.83,0.12-8.74,0.24c-0.65,0.03-1.29,0.11-1.94,0.17
			C106.83,37.62,106.83,37.18,106.58,37.01z"/>
		<path class="st7" d="M40.98,55.91c10.03,0,20.06-0.01,30.1,0.02c0.98,0,2.38-0.49,2.78,0.79c0.5,1.6,0.61,3.41-0.12,4.97
			c-0.41,0.88-1.61,0.53-2.47,0.54c-8.98,0.02-17.96,0.01-26.94,0.01c-3.64,0-3.64,0-3.61,3.67c0.01,0.65,0.01,1.29,0.02,1.94
			c-0.32,1.05-1.21,1.23-2.11,1.29c-2.9,0.21-5.81,0.21-8.72,0c-0.96-0.07-2-0.19-2.08-1.53c3.15-0.03,6.3-0.12,9.45-0.06
			c1.79,0.03,2.69-0.46,2.65-2.44c-0.03-1.92-0.7-2.86-2.68-2.83c-2.58,0.04-5.17-0.07-7.75,0.01c-2.4,0.07-2.23-1.54-2.21-3.1
			c0.02-1.6-0.32-3.28,2.25-3.34c3.45-0.08,6.94,0.54,10.35-0.45C40.37,55.33,40.67,55.65,40.98,55.91z"/>
		<path class="st7" d="M27.84,67.62c4.29,0.86,8.6,0.46,12.91,0.23c2.74-0.47,5.5-0.19,8.24-0.2c7.54-0.05,15.08,0.06,22.61-0.06
			c2.43-0.04,2.57,1.25,2.51,3.06c-0.05,1.73,0.25,3.37-2.48,3.34c-10.37-0.11-20.75-0.05-31.12-0.05
			c-3.27,0.46-6.55,0.08-9.82,0.22c-0.95,0.04-1.92-0.2-2.85,0.2C26.98,72.1,26.98,69.86,27.84,67.62z"/>
		<path class="st7" d="M114.47,42.82c0.24-0.01,0.49-0.05,0.73-0.01c1.45,0.27,3.6-0.93,4.24,0.45c0.79,1.69,0.78,3.93-0.23,5.84
			c-3.71-0.45-7.42-0.15-11.14-0.17c-10.76-0.06-21.51-0.04-32.27-0.01c-1.15,0-1.5-0.38-1.57-1.53c-0.26-4.8-0.3-4.8,4.36-4.79
			c11.08,0,22.17-0.01,33.25,0.01C112.72,42.6,113.62,42.38,114.47,42.82z"/>
		<path class="st7" d="M108,73.88c-0.14-2.36,0.34-4.71-0.96-7.05c-0.76-1.36-0.45-3.2,0.4-4.87c1.01-1.98,1.14-4.14-0.31-6.1
			c-0.54-1.92-0.18-3.87-0.21-5.81c-0.01-0.34,0.33-0.49,0.69-0.43c0.23,6.25,0.23,6.25,6.6,6.25c0.73,0,1.45,0,2.18,0
			c3.37,0.02,3.4,0.15,3.46,3.57c0.04,2.05-0.66,2.98-2.79,2.86c-1.93-0.11-3.87-0.05-5.81-0.01c-1.17,0.03-2.67-0.35-3.26,0.98
			c-0.62,1.41-0.66,2.99,0.58,4.27c3.4,0.5,6.8,0.39,10.2,0.05c0.54,0.11,0.87,0.43,0.97,0.98c-0.47,1.23-0.26,2.51-0.19,3.75
			c0.08,1.51-0.51,2.03-1.92,1.82C114.41,73.99,111.19,74.45,108,73.88z"/>
		<path class="st8" d="M27.86,49.09c-0.9-2.24-0.86-4.47,0-6.71c3.03,0.45,6.08,0.06,9.12,0.21c0.87,0.04,1.77-0.23,2.6,0.24
			c0.6,6.07,0.59,6.04-5.24,6.08C32.18,48.93,30.01,48.67,27.86,49.09z"/>
		<path class="st7" d="M107.59,49.62c-0.9,2.02-0.28,4.16-0.47,6.24c-0.75-1.28-0.49-2.7-0.41-4.04c0.12-2.13-0.76-2.83-2.84-2.81
			c-8.75,0.07-17.5,0.03-26.25,0.03c-3.17,0-4.9-3.01-3.36-5.83c0.6-1.1,1.69-0.78,2.61-0.78c8.51-0.03,17.01-0.02,25.52-0.02
			c4.39,0,4.39,0,4.27-4.44c-0.01-0.32-0.05-0.64-0.07-0.97c0.22,0.2,0.44,0.39,0.66,0.59c-0.01,0.64,0.02,1.29-0.04,1.93
			c-0.22,2.1,0.72,2.88,2.8,2.82c1.48-0.04,3.06-0.44,4.47,0.47c-12.24,0.01-24.48,0.02-36.72,0.04c-2.91,0-4.29,2.16-3.05,4.78
			c0.64,1.36,1.94,0.96,3.01,0.97c12.73,0.04,25.46,0.03,38.18,0.05c1.12,0,2.28-0.16,3.33,0.44c-3.02,0.03-6.05,0.05-9.07,0.08
			C109.27,49.18,108.37,49.09,107.59,49.62z"/>
		<path class="st9" d="M108.2,74.44c-1.17,2.89-0.42,5.91-0.54,8.86c-0.14,3.72-0.04,3.74-3.83,3.74c-20.16,0-40.32,0-60.47,0
			c-3.36,0-3.4-0.06-3.43-3.37c-0.03-3.07-0.08-6.14-0.12-9.21c0.18-0.28,0.38-0.29,0.6-0.06l0.02,0.02
			c0.57,3.2,0.21,6.43,0.22,9.65c0.01,1.59,0.29,2.26,2.1,2.25c20.67-0.06,41.34-0.06,62.01,0c1.77,0.01,2.13-0.59,2.13-2.22
			c0.01-3.21-0.37-6.44,0.23-9.64l0.04-0.04C107.52,74.09,107.86,74.1,108.2,74.44z"/>
		<path class="st7" d="M27.86,49.09c2.52-0.88,5.12-0.35,7.68-0.42c3.91-0.1,3.91-0.03,3.92-3.88c0-0.64,0-1.29,0-1.93
			c-0.32-0.2-0.33-0.42-0.02-0.65c0.31-0.15,0.61-0.31,0.92-0.46c-0.51,2.68-0.63,5.25,0.27,7.98c0.63,1.89,0.27,4.1,0.36,6.17
			c-0.36-0.17-0.72-0.35-1.09-0.52c-0.12-6.22-0.12-6.22-6.45-6.23C31.58,49.16,29.72,49.12,27.86,49.09z"/>
		<path class="st7" d="M28.72,37.02c1.84-0.01,3.68-0.01,5.52-0.03c0.88-0.01,1.84,0.03,2.37-0.84c0.5-0.81,1.05-1.55,2.07-1.2
			c1.25,0.43,0.62,1.63,0.8,2.5C35.9,37.18,32.28,37.87,28.72,37.02z"/>
		<path class="st10" d="M40.42,74.4c-0.2,0.02-0.4,0.04-0.6,0.06c-3.99-0.04-7.98-0.08-11.96-0.12c4.2-0.93,8.45-0.24,12.67-0.41
			C40.48,74.09,40.44,74.24,40.42,74.4z"/>
		<path class="st11" d="M39.44,42.22c0.01,0.21,0.02,0.43,0.02,0.64c-3.86-0.34-7.77,0.5-11.6-0.48
			C31.72,42.33,35.58,42.28,39.44,42.22z"/>
		<path class="st7" d="M108.2,74.44c-0.34-0.01-0.69-0.02-1.03-0.02c0.28-0.18,0.56-0.35,0.83-0.53c3.27,0.01,6.53,0.01,9.8,0.02
			c0.33,0.15,0.33,0.3,0,0.44C114.6,74.38,111.4,74.41,108.2,74.44z"/>
		<path class="st12" d="M118.76,67.6c-3.4,0.73-6.81,0.8-10.2-0.05C111.95,67.57,115.36,67.58,118.76,67.6z"/>
		<path class="st7" d="M117.8,74.35c0-0.15,0-0.3,0-0.44c1.23-0.18,1.43-1.05,1.46-2.08c0.02-1.1-0.14-2.23,0.47-3.24
			c0.01,1.27,0.01,2.54,0.04,3.81C119.81,73.76,119.29,74.53,117.8,74.35z"/>
		<path class="st7" d="M107.13,74.45c-0.01,3.15-0.08,6.3-0.01,9.45c0.04,1.82-0.62,2.64-2.53,2.64c-20.55-0.03-41.1-0.03-61.65,0
			c-1.95,0-2.53-0.88-2.5-2.67c0.06-3.15,0.01-6.3,0-9.45c0.87,2.93,0.35,5.93,0.37,8.9c0.01,2.08,0.72,2.83,2.83,2.83
			c20.08-0.05,40.16-0.05,60.24,0c2.08,0.01,2.85-0.69,2.86-2.8C106.76,80.38,106.22,77.38,107.13,74.45z"/>
	</g>
	<path class="st13" d="M108.47,107.27c0,1.61-0.02,3.23,0.02,4.84c0.02,1.11-0.36,1.74-1.59,1.73c-2.65-0.03-5.31-0.03-7.96,0
		c-1.22,0.01-1.61-0.59-1.56-1.73c0.12-2.73,1.82-4.07,4.18-4.88C103.86,106.99,106.17,106.89,108.47,107.27z"/>
	<path class="st1" d="M108.47,107.27c-2.31-0.02-4.61-0.03-6.92-0.05C103.86,106.75,106.17,106.6,108.47,107.27z"/>
	<path class="st0" d="M86.59,111.03c0.11,0.01,0.22,0.02,0.33,0.04c-1.73,0.65-3.53,0.24-5.29,0.31c-1.89,0.07-3.78,0.02-5.68-0.35
		C79.5,111.03,83.04,111.03,86.59,111.03z"/>
</g>
</svg>
